<?xml version="1.0" standalone="no"?>
<!DOCTYPE svg PUBLIC "-//W3C//DTD SVG 1.1//EN" "http://www.w3.org/Graphics/SVG/1.1/DTD/svg11.dtd" >
<svg xmlns="http://www.w3.org/2000/svg">
<metadata></metadata>
<defs>
<font id="zrnicregular" horiz-adv-x="980" >
<font-face units-per-em="2048" ascent="1638" descent="-410" />
<missing-glyph horiz-adv-x="456" />
<glyph horiz-adv-x="0" />
<glyph horiz-adv-x="682" />
<glyph unicode=" "  horiz-adv-x="456" />
<glyph unicode="&#x09;" horiz-adv-x="456" />
<glyph unicode="&#xa0;" horiz-adv-x="456" />
<glyph unicode="!" horiz-adv-x="430" d="M125 2v150h205v-150h-205zM125 379v979h205v-979h-205z" />
<glyph unicode="&#x22;" horiz-adv-x="563" d="M31 1497h182l-55 -410h-117zM319 1497h181l-56 -410h-114z" />
<glyph unicode="#" horiz-adv-x="798" d="M61 852v119h185v116h-185v121h185v166h121v-166h116v166h119v-166h170v-121h-170v-116h170v-119h-170v-186h-119v186h-116v-186h-121v186h-185zM367 971h116v116h-116v-116z" />
<glyph unicode="$" horiz-adv-x="796" d="M45 1137q0 102 47 168q53 76 150 75h129v90h65v-90h185v-114h-185v-240h152q82 0 127 -102q35 -80 35 -174t-35 -164q-43 -88 -127 -88h-152v-113h-65v113h-252v112h252v256h-142q-88 0 -141 95q-43 80 -43 176zM231 1147q0 -45 19 -80q23 -41 63 -41h58v240h-58 q-41 0 -61.5 -38t-20.5 -81zM436 610h43q45 0 72 43q22 35 22 84t-24.5 89t-69.5 40h-43v-256z" />
<glyph unicode="%" horiz-adv-x="954" d="M90 881l2 229q0 131 29 180q39 66 162 66q96 0 131 -82q20 -51 20 -164v-223q0 -117 -22 -166q-35 -78 -138 -78q-117 0 -155 64q-29 47 -29 174zM172 1040q0 -287 70 -286h26q86 -1 86 196q0 291 -71 291h-25q-86 0 -86 -201zM307 0l299 1354h74l-297 -1354h-76z M561 238v229q0 131 31 180q39 66 162 66q96 0 131 -82q20 -51 20 -164v-223q0 -117 -22 -166q-35 -78 -138 -78q-117 0 -155 63q-29 47 -29 175zM643 397q0 -287 70 -286h26q86 -1 86 196q0 291 -71 291h-25q-86 0 -86 -201z" />
<glyph unicode="&#x26;" horiz-adv-x="843" d="M35 403q0 227 102 338q-102 109 -102 291q0 123 51 213q63 109 178 109h199v-115h-88q-76 0 -115 -78q-33 -61 -33 -145q0 -82 31 -144q41 -76 117 -75h360v-113h-121v-573h193v-113h-543q-121 0 -182 149q-47 115 -47 256zM227 399q0 -98 29 -178q39 -111 119 -110h106 v573h-106q-80 0 -119 -109q-29 -78 -29 -176z" />
<glyph unicode="'" horiz-adv-x="247" d="M43 1497h180l-55 -410h-115z" />
<glyph unicode="(" horiz-adv-x="665" d="M164 -100v1351q0 147 109.5 249t258.5 102h134v-115h-158q-74 0 -127 -82q-47 -74 -47 -152v-1339q0 -158 98 -201q55 -25 234 -24v-115h-105q-168 0 -274 78q-123 88 -123 248z" />
<glyph unicode=")" horiz-adv-x="716" d="M127 -311h49q150 0 207 37q74 47 74 188v1339q0 78 -47 152q-51 82 -127 82h-156v115h133q150 0 259.5 -101.5t109.5 -249.5v-1351q0 -160 -123 -248q-109 -78 -275 -78h-104v115z" />
<glyph unicode="*" horiz-adv-x="831" d="M45 733q0 152 107.5 258.5t259.5 106.5q150 0 257 -106.5t107 -258.5q0 -150 -107.5 -257t-256.5 -107q-152 0 -259.5 107.5t-107.5 256.5zM168 582l82 -82l162 159l168 -167l82 81l-168 168l159 162l-82 82l-159 -162l-154 154l-82 -82l154 -154z" />
<glyph unicode="+" horiz-adv-x="831" d="M45 733q0 152 107.5 258.5t259.5 106.5q150 0 257 -106.5t107 -258.5q0 -150 -107.5 -257t-256.5 -107q-152 0 -259.5 107.5t-107.5 256.5zM131 682h227v-240h117v240h227v115h-227v217h-117v-217h-227v-115z" />
<glyph unicode="," horiz-adv-x="342" d="M100 104h183l-58 -407h-114z" />
<glyph unicode="-" horiz-adv-x="544" d="M100 567v117h389v-117h-389z" />
<glyph unicode="." horiz-adv-x="372" d="M111 2v150h202v-150h-202z" />
<glyph unicode="/" horiz-adv-x="696" d="M88 0l463 1354h111l-459 -1354h-115z" />
<glyph unicode="0" horiz-adv-x="897" d="M66 350v645q0 129 49 232q63 127 180 127h293q117 0 178 -127q51 -102 51 -232v-645q0 -129 -51 -227q-63 -125 -178 -125h-293q-117 0 -180 125q-49 98 -49 227zM258 350q0 -84 31 -151q41 -88 117 -88h71q76 0 115 88q33 67 33 151v645q0 86 -31 156q-41 88 -117 88 h-71q-76 0 -117 -88q-31 -70 -31 -156v-645z" />
<glyph unicode="1" horiz-adv-x="487" d="M74 1241v115h313v-1356h-205v1241h-108z" />
<glyph unicode="2" horiz-adv-x="995" d="M78 57v338q0 131 45 230q61 125 178 125h309q78 0 119 88q31 68 31 155q0 88 -31 156q-41 90 -119 90h-407v115h518q117 0 180 -131q51 -103 51 -234t-51 -229q-61 -123 -180 -123h-311q-74 0 -107 -88q-27 -63 -27 -154v-282h644v-113h-785q-43 0 -50 7t-7 50z" />
<glyph unicode="3" horiz-adv-x="831" d="M57 -2v113h355q76 0 116 94q31 70 31 160q0 88 -31 157q-39 90 -116 90h-187v115h187q78 0 116 92q31 72 31 162t-31 162q-39 96 -116 96h-355v115h463q119 0 182 -131q49 -102 50 -236q0 -209 -105 -317q105 -111 105 -314q0 -131 -50 -231q-63 -127 -182 -127h-463z " />
<glyph unicode="4" horiz-adv-x="919" d="M57 254v152l418 948h273v-992h120v-106h-120v-256h-183v256zM225 362h340v760z" />
<glyph unicode="5" horiz-adv-x="913" d="M43 637v717h725v-115h-532v-489h411q117 0 176 -125q47 -99 47 -230q0 -139 -51 -252q-66 -143 -186 -143h-557v113h446q82 0 123 104q33 80 33 174q0 88 -29 156q-37 90 -112 90h-494z" />
<glyph unicode="6" horiz-adv-x="989" d="M100 313v734q0 166 41 229q53 84 211 84h414v-113h-330q-84 0 -112 -73q-18 -45 -19 -144v-698q0 -100 19 -146q29 -74 112 -73h154q127 0 127 182v250q0 152 -84 151h-223v113h319q100 0 152 -82q41 -68 41 -174v-240q0 -164 -41 -229q-53 -84 -207 -84h-322 q-158 0 -211 84q-41 63 -41 229z" />
<glyph unicode="7" horiz-adv-x="839" d="M45 1247v107h752l-412 -1354h-211l399 1247h-528z" />
<glyph unicode="8" d="M74 356q0 203 102 314q-102 109 -102 317q0 133 49 236q61 131 180 131h367q119 0 182 -131q49 -102 49 -236q0 -207 -104 -317q104 -111 104 -314q0 -131 -49 -231q-63 -127 -182 -127h-367q-117 0 -180 127q-49 100 -49 231zM266 365q0 -90 31 -160q39 -94 117 -94h147 q76 0 117 94q31 70 31 160q0 88 -31 157q-39 90 -117 90h-147q-78 0 -117 -90q-31 -70 -31 -157zM266 981q0 -90 29 -162q41 -92 119 -92h147q78 0 117 92q31 72 31 162t-31 162q-39 96 -117 96h-147q-78 0 -119 -96q-29 -72 -29 -162z" />
<glyph unicode="9" horiz-adv-x="978" d="M59 879v168q0 166 41 229q53 84 209 84h322q156 0 211 -84q41 -63 41 -229v-734q0 -166 -41 -229q-55 -84 -211 -84h-414v113h330q82 0 110 73q18 45 19 144v698q0 100 -17 146q-29 74 -112 73h-154q-129 0 -129 -182v-49q-2 -43 -2 -74q0 -207 88 -207h221v-112h-319 q-100 0 -152 82q-41 68 -41 174z" />
<glyph unicode=":" horiz-adv-x="358" d="M121 53q0 47 20 84q25 45 68 45q45 0 70 -45q20 -37 20 -84t-20 -84q-25 -45 -70 -45q-43 0 -68 45q-20 37 -20 84zM121 676q0 47 22.5 87t65.5 40q45 0 67.5 -40t22.5 -87q0 -49 -20 -84q-25 -45 -70 -45q-43 0 -68 45q-20 35 -20 84z" />
<glyph unicode=";" horiz-adv-x="352" d="M123 158v327h168l-29 -327h-139zM127 883q0 47 22.5 87t65.5 40q45 0 70 -43q18 -37 18 -84q0 -49 -18 -86q-25 -43 -70 -43q-43 0 -68 43q-20 37 -20 86z" />
<glyph unicode="&#x3c;" horiz-adv-x="624" d="M29 702l544 515v-152l-362 -338v-29l362 -338v-151z" />
<glyph unicode="=" horiz-adv-x="681" d="M82 377v115h559v-115h-559zM82 733v117h559v-117h-559z" />
<glyph unicode="&#x3e;" horiz-adv-x="630" d="M59 209v151l361 338v29l-361 338v152l543 -515z" />
<glyph unicode="?" horiz-adv-x="847" d="M55 1239v115h518q117 0 181 -131q51 -103 51 -234t-51 -229q-61 -123 -181 -123h-98q-96 0 -141 -109q-33 -78 -33 -190h-61q-43 102 -43 160q0 96 61 174t154 78h51q78 0 119 88q31 68 30 155q0 88 -32 156q-39 90 -117 90h-408zM168 0v188h205v-188h-205z" />
<glyph unicode="@" horiz-adv-x="1071" d="M104 352v553q0 209 162 209h613q78 0 109.5 -43t31.5 -153v-508h-547q-29 0 -49.5 20.5t-33.5 55t-19 82.5t-6 102q0 135 42 205.5t128 70.5h229v-485h108v497q0 104 -49 105h-508q-68 0 -67 -117v-620q0 -84 67 -84h705v-54h-754q-162 0 -162 164zM459 666 q0 -94 13 -149.5t36 -55.5h154v428h-154q-25 0 -37 -65.5t-12 -157.5z" />
<glyph unicode="A" horiz-adv-x="905" d="M43 -2l276 1354h281l277 -1354h-203l-51 297h-324l-53 -297h-203zM317 410h287l-137 755q-4 20 -4 47h-4q0 -27 -2 -47z" />
<glyph unicode="B" horiz-adv-x="972" d="M82 -2v1356h580q119 0 182 -131q49 -102 49 -236q0 -207 -105 -317q105 -111 105 -314q0 -131 -49 -231q-63 -127 -182 -127h-580zM285 111h268q76 0 117 94q30 70 30 160q0 88 -30 157q-39 90 -117 90h-186v115h186q78 0 117 92q30 70 30 156v6q0 90 -30 162 q-39 96 -117 96h-268v-1128z" />
<glyph unicode="C" horiz-adv-x="831" d="M76 350v645q0 129 51 232q63 127 180 127h463v-115h-354q-74 0 -115 -88q-33 -70 -33 -156v-645q0 -84 33 -151q41 -88 115 -88h354v-113h-463q-117 0 -180 125q-51 98 -51 227z" />
<glyph unicode="D" horiz-adv-x="948" d="M82 -2v1356h582q117 0 178 -127q51 -102 51 -232v-645q0 -129 -51 -227q-63 -125 -178 -125h-582zM287 111h266q76 0 115 88q32 67 32 151v645q0 86 -30 156q-41 88 -117 88h-266v-1128z" />
<glyph unicode="E" horiz-adv-x="868" d="M125 0v1354h641v-115h-434v-504h280v-112h-280v-510h434v-113h-641z" />
<glyph unicode="F" horiz-adv-x="724" d="M84 0v1354h641v-115h-436v-504h282v-112h-282v-623h-205z" />
<glyph unicode="G" horiz-adv-x="913" d="M59 350v645q0 129 52 232q63 127 180 127h463v-115h-353q-76 0 -116 -88q-31 -70 -31 -156l-2 -645q0 -84 33 -151q41 -88 116 -88h265v512h-297v114h479v-739h-557q-117 0 -180 125q-51 98 -52 227z" />
<glyph unicode="H" horiz-adv-x="1058" d="M125 0v1354h207v-619h420v619h204v-1354h-204v623h-420v-623h-207z" />
<glyph unicode="I" horiz-adv-x="430" d="M123 0v1354h207v-1354h-207z" />
<glyph unicode="J" horiz-adv-x="872" d="M78 -2v113h352q76 0 117 88q31 68 31 151v889h-148v115h342v-1004q0 -129 -51 -227q-63 -125 -180 -125h-463z" />
<glyph unicode="K" horiz-adv-x="946" d="M106 0v1354h207v-588l373 588h229l-454 -645l454 -709h-229l-373 641v-641h-207z" />
<glyph unicode="L" horiz-adv-x="774" d="M115 0v1362h202v-1245h398v-117h-600z" />
<glyph unicode="M" horiz-adv-x="1236" d="M131 0v1354h231l271 -1049l270 1049h232v-1354h-156v973l-256 -973h-178l-254 967v-967h-160z" />
<glyph unicode="N" horiz-adv-x="968" d="M76 0v1354h223l434 -1069v1069h160v-1354h-260l-400 950v-950h-157z" />
<glyph unicode="O" horiz-adv-x="1015" d="M66 350v645q0 129 49 232q63 127 180 127h410q117 0 180 -127q51 -102 51 -232v-645q0 -129 -51 -227q-63 -125 -180 -125h-410q-117 0 -180 125q-49 98 -49 227zM258 350q0 -84 31 -151q41 -88 117 -88h190q74 0 115 88q32 67 32 151v645q0 86 -32 156q-41 88 -115 88 h-190q-76 0 -117 -88q-31 -70 -31 -156v-645z" />
<glyph unicode="P" horiz-adv-x="940" d="M74 0v1354h581q121 0 185 -156q45 -115 45 -258q0 -141 -45 -252q-61 -147 -185 -147h-297v114h187q80 0 121 111q26 77 26 171v7q0 100 -28 182q-39 113 -119 113h-266v-1239h-205z" />
<glyph unicode="Q" horiz-adv-x="1087" d="M66 350v645q0 129 49 232q63 127 180 127h481q117 0 180 -127q49 -102 50 -232v-645q0 -129 -50 -227q-63 -125 -180 -125h-131l62 -139h-140l-61 139h-211q-117 0 -180 125q-49 98 -49 227zM258 350q0 -84 31 -151q41 -88 117 -88h260q76 0 116 88q31 67 31 151v645 q0 86 -31 156q-41 88 -116 88h-260q-76 0 -117 -88q-31 -70 -31 -156v-645z" />
<glyph unicode="R" d="M80 0v1354h579q119 0 185 -129q53 -105 53 -234q0 -223 -137 -325q127 -72 127 -355v-311h-193v311q0 102 -28 185q-39 116 -118 116h-1h-182v115h186q78 0 117 92q30 70 30 156v6q0 90 -30 162q-39 96 -117 96h-268v-1239h-203z" />
<glyph unicode="S" horiz-adv-x="882" d="M55 977q0 133 49 240q63 137 181 137h448v-115h-338q-76 0 -116 -84q-31 -66 -31 -149q0 -86 31 -150q41 -82 116 -82h217q117 0 176 -133q48 -100 48 -233q0 -141 -52 -258q-66 -150 -186 -150h-496v113h385q80 0 123 98q33 76 33 168q0 147 -59 196q-43 39 -160 39h-66 q-47 -2 -73 -2q-119 0 -181 129q-49 100 -49 236z" />
<glyph unicode="T" horiz-adv-x="854" d="M70 1247v113h761v-113h-290v-1247h-205v1247h-266z" />
<glyph unicode="U" horiz-adv-x="1097" d="M78 350v1000h192v-1000q0 -84 31 -151q41 -88 117 -88h237q76 0 117 88q31 68 31 151v1000h192v-1000q0 -129 -51 -227q-61 -125 -178 -125h-459q-117 0 -178 125q-51 98 -51 227z" />
<glyph unicode="V" horiz-adv-x="929" d="M53 1354h205l207 -1190q0 -2 4 -49h4q0 16 4 49l207 1190h205l-279 -1354h-278z" />
<glyph unicode="W" horiz-adv-x="1490" d="M78 1354h203l206 -1186l5 -53h2q2 16 6 53l209 1186h108l207 -1196l6 -43h2q0 14 4 43l207 1196h205l-279 -1354h-278l-129 856l-127 -856h-281z" />
<glyph unicode="X" horiz-adv-x="966" d="M86 0l287 664l-287 690h209l190 -545l207 545h209l-289 -690l287 -664h-219l-180 520l-187 -520h-227z" />
<glyph unicode="Y" horiz-adv-x="882" d="M80 1354h217l172 -539l170 539h217l-291 -705v-649h-205l-2 653z" />
<glyph unicode="Z" horiz-adv-x="899" d="M98 0v74l512 1165h-512v115h715v-107l-485 -1134h485v-113h-715z" />
<glyph unicode="[" horiz-adv-x="509" />
<glyph unicode="\" horiz-adv-x="657" d="M80 1239h98l420 -1241h-102z" />
<glyph unicode="]" horiz-adv-x="509" />
<glyph unicode="^" horiz-adv-x="538" d="M125 1073l111 301h112l111 -301h-68l-100 139l-98 -139h-68z" />
<glyph unicode="_" horiz-adv-x="1009" d="M-23 -317h1033v-115h-1033v115z" />
<glyph unicode="`" horiz-adv-x="415" d="M18 1247l5 53l364 -174l-4 -55z" />
<glyph unicode="a" horiz-adv-x="884" d="M43 317q0 119 47 211q57 113 166 113h274v-113h-73q-45 2 -62 2q-88 0 -119 -32q-38 -40 -38 -158v-6q0 -70 18 -131q27 -90 78 -90h289v665q0 88 -21 127q-31 53 -110 53h-261v113h344q156 0 209 -84q41 -63 41 -229v-758h-569q-109 0 -166 111q-47 88 -47 206z" />
<glyph unicode="b" horiz-adv-x="966" d="M102 0v1356h205v-1243h103h102q141 0 178 57q25 41 25 188v375q0 102 -19 148q-29 77 -110 77h-2h-178v113h262q154 0 211 -110q39 -80 39 -250v-351q0 -170 -39 -247q-57 -113 -211 -113h-566z" />
<glyph unicode="c" horiz-adv-x="823" d="M106 338v397q0 166 39 238q55 98 211 98h408v-113h-322q-84 0 -112 -75q-18 -45 -19 -146v-420q0 -113 27 -151q33 -49 139 -53q37 -3 88 -3q26 0 56 1q123 2 143 2v-113h-408q-156 0 -211 98q-39 72 -39 240z" />
<glyph unicode="d" horiz-adv-x="999" d="M106 360v351q0 170 41 250q55 110 206 110h3h238v-113h-154q-84 0 -114 -77q-16 -47 -17 -148v-272q0 -195 27 -256q43 -92 192 -92h82h84v1243h203v-1356h-541q-154 0 -209 113q-41 78 -41 247z" />
<glyph unicode="e" horiz-adv-x="923" d="M70 338v397q0 166 39 238q55 98 210 98h371q94 0 146 -117q36 -87 36 -198t-36 -195q-49 -112 -144 -112h-2h-287v112h170q59 0 89 84q20 59 20 133q0 59 -14 109q-18 71 -59 71h-1h-202q-84 0 -113 -73q-18 -45 -19 -146v-407q0 -119 23 -160q35 -59 143 -59h-4h363 v-113h-480q-156 0 -210 98q-39 72 -39 240z" />
<glyph unicode="f" horiz-adv-x="555" d="M102 0v1063q0 160 43 219q51 72 207 72h170v-117l-80 2q-94 0 -120 -57q-16 -33 -17 -146h217v-114h-217v-922h-203z" />
<glyph unicode="g" horiz-adv-x="964" d="M88 340v397q0 166 43 238q55 98 209 98h565v-1188q0 -168 -41 -239q-55 -98 -209 -99h-299v115q63 -2 109 -2q137 0 180 31q57 39 57 176l-2 1091h-102q-66 2 -102 3q-156 0 -189 -80q-14 -33 -14 -183v-39l2 -331q0 -98 18 -142q29 -69 109 -69h2h180v-115h-264 q-156 0 -211 98q-41 72 -41 240z" />
<glyph unicode="h" horiz-adv-x="983" d="M100 0v1354h207v-283h367q156 0 209 -84q41 -63 41 -229v-758h-203v721q0 111 -14 153q-27 84 -115 84h-285v-958h-207z" />
<glyph unicode="i" horiz-adv-x="391" d="M104 0v1071h207v-1071h-207zM104 1182v174h207v-174h-207z" />
<glyph unicode="j" horiz-adv-x="618" d="M100 -338h19q131 0 166 51q28 40 28 177v10v1171h205v-1210q0 -164 -43 -228q-53 -86 -207 -86h-168v115zM313 1182v174h205v-174h-205z" />
<glyph unicode="k" horiz-adv-x="911" d="M104 0v1354h207v-701l303 420h207l-379 -483l410 -590h-229l-312 475v-475h-207z" />
<glyph unicode="l" horiz-adv-x="432" d="M123 0v1354h207v-1354h-207z" />
<glyph unicode="m" horiz-adv-x="1445" d="M88 0v1071h1049q156 0 209 -84q40 -62 40 -221v-8v-758h-202v721q0 111 -15 153q-27 84 -114 84h-215v-958h-203v958h-344v-958h-205z" />
<glyph unicode="n" horiz-adv-x="964" d="M88 0v1071h571q156 0 209 -84q41 -63 41 -229v-758h-202v721q0 111 -15 153q-27 84 -114 84h-285v-958h-205z" />
<glyph unicode="o" d="M72 338v397q0 166 41 238q55 98 209 98h358q154 0 209 -98q41 -72 41 -238v-397q0 -168 -41 -240q-55 -98 -209 -98h-358q-154 0 -209 98q-41 72 -41 240zM276 354q0 -88 39 -157q47 -84 127 -84h117q109 0 141 61q23 41 23 160v403q0 102 -16 148q-29 73 -111 73h-2 h-186q-84 0 -113 -73q-18 -45 -19 -148v-383z" />
<glyph unicode="p" horiz-adv-x="952" d="M59 -461v1534h588q154 0 211 -98q41 -72 41 -238v-397q0 -168 -41 -240q-55 -98 -211 -98h-287v115h203q84 0 113 69q18 45 18 142v331q0 197 -18 232q-35 70 -203 70q-39 0 -104 -3h-105v-1419h-205z" />
<glyph unicode="q" horiz-adv-x="937" d="M61 340v397q0 166 41 238q57 98 211 98h566v-1534h-205v1419l-209 3q-152 0 -186 -82q-14 -35 -15 -220v-331q0 -96 21 -142q29 -69 110 -69h2h181v-115h-265q-156 0 -211 98q-41 72 -41 240z" />
<glyph unicode="r" horiz-adv-x="563" d="M70 0v764q0 323 350 323h2h139v-112h-102h-9q-120 0 -153 -55q-23 -37 -23 -183v-737h-204z" />
<glyph unicode="s" horiz-adv-x="880" d="M53 784q0 113 43 191q51 98 154 98h450v-115h-378q-43 0 -66 -65q-16 -45 -16 -102q0 -55 16 -103q23 -63 66 -63h344q86 0 131 -127q32 -95 32 -201q0 -104 -30 -186q-43 -111 -133 -111h-539v113h432q49 0 76 65q18 49 18 109q0 59 -18 108q-27 68 -76 68h-319 q-94 0 -146 121q-41 92 -41 200z" />
<glyph unicode="t" horiz-adv-x="587" d="M100 266v1088h205v-283h264v-113h-264v-655q0 -127 39 -162q30 -28 146 -28h8v-113h-148q-158 0 -204 53t-46 213z" />
<glyph unicode="u" horiz-adv-x="950" d="M68 315v758h200v-719q0 -111 17 -155q27 -82 114 -82h287v956h205v-1071h-574q-156 0 -208 84q-41 66 -41 229z" />
<glyph unicode="v" horiz-adv-x="946" d="M51 1073h209l225 -954l228 954h209l-291 -1073h-289z" />
<glyph unicode="w" horiz-adv-x="1458" d="M51 1073h209l201 -954l227 954h115l225 -954l203 954h209l-266 -1073h-289l-140 735l-139 -735h-289z" />
<glyph unicode="x" horiz-adv-x="935" d="M113 1073h196l187 -463l182 463h199l-271 -545l266 -528h-210l-166 438l-170 -438h-211l266 528z" />
<glyph unicode="y" horiz-adv-x="1038" d="M45 1073h234l294 -813l275 813h162l-541 -1542h-186l172 469z" />
<glyph unicode="z" horiz-adv-x="843" d="M94 0v66l469 892h-469v115h690v-98l-440 -862h440v-113h-690z" />
<glyph unicode="|" horiz-adv-x="428" d="M125 -401v1962h203v-1962h-203z" />
<glyph unicode="~" horiz-adv-x="2895" d="M127 0v600h2v96h137v58h-37v180h37v63h-37v76h899v-94q-14 27 -49 27q-94 0 -94 -158q0 -156 98 -156q31 0 64 39v-35h49v377h766v-53h70v53h737v-1073h-2642zM129 754v180h39v-180h-39zM129 997v76h39v-76h-39zM186 160h123v86h-45v301h-78v-387zM289 823 q0 -131 94 -131q29 0 51 17q0 -47 -57 -47h-31v-62h43q113 12 113 145v252h-68v-186q0 -53 -41 -53q-39 0 -39 53v186h-65v-174zM340 160h76v73h26v-73h82v141l-53 246h-84l-47 -246v-141zM416 291v39l12 102h4l10 -102v-39h-26zM524 600h68v115q14 -25 49 -25q94 0 94 156 t-98 155q-29 0 -64 -40v36h-49v-397zM555 160h78v170h22v-170h84v155l-30 43v7l30 41v100l-22 41h-162v-387zM586 793v102q12 31 43 31q43 0 43 -78q0 -88 -45 -88q-29 0 -41 33zM633 393v84h22v-84h-22zM750 844q0 -156 110 -156q113 0 113 156q0 160 -113 160 q-111 0 -110 -160zM770 160h78v73h24v-73h78v141l-49 246h-84l-47 -246v-141zM817 844q0 84 43 84q45 0 45 -84q0 -82 -45 -82q-43 0 -43 82zM848 291v39l10 102h6l8 -102v-39h-24zM983 160h162l22 43v127l-16 28v7l16 28v113l-22 41h-162v-387zM1049 846q0 88 45 88 q27 0 39 -33v-104q-12 -29 -41 -29q-43 0 -43 78zM1063 233v97h22v-97h-22zM1063 393v84h22v-84h-22zM1200 160h80v387h-80v-387zM1214 774q2 -86 93 -86q45 0 70.5 26.5t25.5 82.5h-31q-6 -39 -51 -39q-41 0 -41 28q0 37 41 37h20v37h-20q-41 0 -41 35q0 33 41 33 q35 0 51 -41h31v110h-31v-47q-23 53 -67 54q-88 0 -88 -89q0 -55 45 -73q-47 -18 -48 -68zM1311 160h131v86h-53v80h53v67h-53v72h53v82h-131v-387zM1425 696h91v58h-29v133q0 41 29 41q12 0 24 -13l23 68q-16 14 -35 16q-43 0 -64 -49v47h-39v-301zM1530 160h80v159h49v68 h-49v78h49v82h-129v-387zM1544 696h144v58h-39v125q0 47 39 47q31 0 30 -47v-183h105v58h-39v125q0 45 39 45q31 0 30 -45v-183h68v193q0 111 -96 110q-49 0 -64 -49q-18 49 -57 49q-35 0 -55 -49v47h-66v-243h-39v-58zM1692 203l20 -43h137l25 43v303l-23 41h-139l-20 -41 v-303zM1769 233v244h23v-244h-23zM1905 160h65v250h6l19 -250h119v387h-66v-250h-6l-23 250h-114v-387zM1931 934h31v-238h70v301h-101v-63zM2048 844q0 -154 104 -154q74 0 93 119h-33q-6 -47 -51 -47q-47 0 -47 82q0 84 47 84t51 -56h33v121h-33v-43q-25 53 -62 54 q-102 0 -102 -160zM2136 465h43v-305h80v305h43v82h-166v-82zM2324 203l23 -43h133l23 43v147l-27 43l-72 17v67h21v-49h78v78l-21 41h-135l-23 -41v-135l25 -41l76 -19v-78h-21v58h-80v-88z" />
<glyph unicode="&#xa1;" horiz-adv-x="430" d="M109 -317v981h204v-981h-204zM109 889v149h204v-149h-204z" />
<glyph unicode="&#xa2;" horiz-adv-x="530" d="M20 870v283q0 119 29 170q39 70 150 70h288v-82h-229q-92 0 -92 -156v-299q0 -78 18 -106q25 -35 99 -39q41 -2 102 0q88 2 102 2v-82h-288q-111 0 -150 69q-29 51 -29 170zM285 508v987h65v-987h-65z" />
<glyph unicode="&#xa4;" horiz-adv-x="933" d="M37 424v115h113v241h-113v117h113q0 457 231 457h491l-30 -115h-326q-125 0 -158 -133q-16 -68 -16 -209h403l-32 -117h-371v-241h303l-33 -115h-270v-74q0 -86 33 -153q41 -86 114 -86h355v-113h-463q-231 0 -231 426h-113z" />
<glyph unicode="&#xa5;" horiz-adv-x="778" d="M23 1354h217l172 -539l172 539h215l-291 -705v-649h-205l-2 653zM154 176v78h501v-78h-501zM154 418v78h501v-78h-501z" />
<glyph unicode="&#xa8;" horiz-adv-x="499" d="M57 1143q0 53 99 53q98 0 98 -53q0 -51 -98 -51t-99 51zM272 1143q0 53 99 53q96 0 96 -53q0 -51 -96 -51q-98 0 -99 51z" />
<glyph unicode="&#xa9;" horiz-adv-x="1300" d="M84 567q0 117 45 221.5t122 181.5t181.5 122t220.5 45q117 0 221.5 -45t181.5 -122t122 -181.5t45 -221.5t-45 -221t-122 -181t-181.5 -122t-221.5 -45t-221 45t-181 122t-122 181t-45 221zM152 565q0 -104 39.5 -196.5t107.5 -160t160 -107.5t196 -40t196.5 40 t161 107.5t108.5 160t40 196.5t-40 196.5t-108.5 162t-160.5 109.5t-197 40q-104 0 -196 -40t-160 -109.5t-107.5 -162t-39.5 -196.5zM360 559q0 76 19.5 141.5t56.5 113.5t90.5 74.5t118.5 26.5q160 0 236 -137l-107 -69q-53 74 -129 73q-72 0 -115 -59t-43 -164 q0 -98 46.5 -159.5t113.5 -61.5q35 0 69 17.5t58 45.5l103 -69q-78 -127 -232 -127q-61 0 -113.5 26.5t-90.5 74.5t-59.5 112.5t-21.5 140.5z" />
<glyph unicode="&#xab;" horiz-adv-x="765" d="M84 555v121l319 166v-127l-208 -97l208 -98v-123zM387 555v121l320 166v-127l-209 -97l209 -98v-123z" />
<glyph unicode="&#xad;" horiz-adv-x="544" d="M100 567v117h389v-117h-389z" />
<glyph unicode="&#xae;" horiz-adv-x="1105" d="M96 723q0 88 34 167t95.5 138t145.5 94t184 35t186 -33.5t148.5 -92t97.5 -137.5t35 -171q0 -86 -36 -164t-98.5 -137.5t-148.5 -95t-184 -35.5q-100 0 -184 35.5t-145.5 95t-95.5 137.5t-34 164zM182 723q0 -66 25.5 -129.5t74 -112.5t117 -79.5t154.5 -30.5 q80 0 152.5 26.5t126 74.5t85 112.5t31.5 138.5q0 63 -29.5 126.5t-82 113t-125 80t-158.5 30.5t-154.5 -30.5t-117 -80t-74 -113t-25.5 -126.5zM412 481v469h168q66 0 105.5 -39t39.5 -110q0 -47 -18.5 -77t-59.5 -56l84 -187h-98l-80 172h-49v-172h-92zM504 750h78 q49 0 49 51q0 55 -49 55h-78v-106z" />
<glyph unicode="&#xb4;" horiz-adv-x="473" d="M23 1126l364 174l4 -53l-364 -176z" />
<glyph unicode="&#xb8;" horiz-adv-x="411" d="M104 -315h175q63 0 63 59q0 41 -44 51t-87 21q-47 25 -47 94q0 25 18 67h27q0 -98 57 -120q51 -8 105.5 -20.5t54.5 -92.5q0 -45 -27.5 -77t-72.5 -32h-222v50z" />
<glyph unicode="&#xba;" horiz-adv-x="765" d="M63 1221q0 158 78 248t234 90q141 0 222 -87.5t81 -232.5q0 -143 -87 -236.5t-231 -93.5q-141 0 -219 85t-78 227zM238 1294q0 -96 32 -192q45 -127 123 -127q113 0 113 201q0 98 -35 196q-47 129 -127 129q-106 0 -106 -207z" />
<glyph unicode="&#xbb;" horiz-adv-x="790" d="M106 397v127l209 99l-209 96v123l320 -158v-121zM410 397v127l208 99l-208 96v123l319 -158v-121z" />
<glyph unicode="&#xbf;" horiz-adv-x="847" d="M63 -43q0 131 50 229q61 123 180 123h98q96 0 141 109q33 78 33 190h62q43 -100 43 -159q0 -96 -61.5 -174t-153.5 -78h-52q-78 0 -116 -88q-31 -68 -31 -156q0 -86 31 -156q39 -90 116 -90h408v-115h-518q-117 0 -180 132q-50 102 -50 233zM494 758v188h204v-188h-204z " />
<glyph unicode="&#xc0;" horiz-adv-x="905" d="M45 -2l277 1354h278l279 -1354h-205l-51 297h-324l-51 -297h-203zM217 1581l4 53l365 -174l-4 -55zM319 410h285l-137 755q-4 20 -2 47h-6q2 -27 -2 -47z" />
<glyph unicode="&#xc1;" horiz-adv-x="905" d="M45 -2l277 1354h278l279 -1354h-205l-51 297h-324l-51 -297h-203zM319 410h285l-137 755q-4 20 -2 47h-6q2 -27 -2 -47zM319 1462l365 174l4 -53l-364 -174z" />
<glyph unicode="&#xc2;" horiz-adv-x="905" d="M45 -2l277 1354h278l279 -1354h-205l-51 297h-324l-51 -297h-203zM246 1483l151 106h172l150 -106h-94l-144 73l-139 -73h-96zM319 410h285l-137 755q-4 20 -2 47h-6q2 -27 -2 -47z" />
<glyph unicode="&#xc3;" horiz-adv-x="905" d="M45 -2l277 1354h278l279 -1354h-205l-51 297h-324l-51 -297h-203zM244 1493q39 86 145 86q66 0 176 -57q14 16 25 57h119q-43 -88 -150 -88q-70 0 -174 57q-14 -16 -25 -55h-116zM319 410h285l-137 755q-4 20 -2 47h-6q2 -27 -2 -47z" />
<glyph unicode="&#xc4;" horiz-adv-x="905" d="M45 -2l277 1354h278l279 -1354h-205l-51 297h-324l-51 -297h-203zM250 1536q0 53 98 53t98 -53q0 -51 -98 -51t-98 51zM319 410h285l-137 755q-4 20 -2 47h-6q2 -27 -2 -47zM465 1536q0 53 98 53q99 0 99 -53q0 -51 -99 -51q-98 0 -98 51z" />
<glyph unicode="&#xc5;" horiz-adv-x="905" d="M45 -2l277 1354h278l279 -1354h-205l-51 297h-324l-51 -297h-203zM299 1497q0 53 59 86q51 25 109 25q59 0 108 -27q62 -31 62 -84t-62 -84q-49 -27 -108 -27q-57 0 -109 27q-59 31 -59 84zM319 410h285l-137 755q-4 20 -2 47h-6q2 -27 -2 -47zM412 1483q0 -88 55 -88 q57 0 57 92v20q0 94 -57 95q-55 0 -55 -91v-28z" />
<glyph unicode="&#xc6;" horiz-adv-x="999" d="M27 0l145 1354h770v-107h-264v-696h147v-113h-147v-317h264v-113h-477v430h-189l-45 -438h-204zM299 551h166v696h-103z" />
<glyph unicode="&#xc7;" horiz-adv-x="862" d="M68 350v645q0 129 49 232q63 127 180 127h463v-115h-352q-76 0 -117 -88q-31 -70 -31 -156v-645q0 -84 31 -151q41 -88 117 -88h352v-113h-463q-117 0 -180 125q-49 98 -49 227zM371 -268h176q63 0 63 57q0 41 -45 52.5t-88 21.5q-47 23 -47 92q0 25 19 70h28 q0 -98 55 -121q51 -10 105 -19q55 -14 55 -94q0 -45 -27.5 -76.5t-70.5 -31.5h-223v49z" />
<glyph unicode="&#xc8;" horiz-adv-x="868" d="M82 0v1354h643v-115h-436v-504h282v-112h-282v-510h436v-113h-643zM205 1575l2 53l366 -172l-4 -55z" />
<glyph unicode="&#xc9;" horiz-adv-x="868" d="M82 0v1354h643v-115h-436v-504h282v-112h-282v-510h436v-113h-643zM221 1468l365 174l2 -53l-365 -176z" />
<glyph unicode="&#xca;" horiz-adv-x="868" d="M74 0v1354h643v-115h-436v-504h280v-112h-280v-510h436v-113h-643zM174 1489l154 106h170l151 -106h-94l-145 74l-140 -74h-96z" />
<glyph unicode="&#xcb;" horiz-adv-x="868" d="M82 0v1354h643v-115h-436v-504h282v-112h-282v-510h436v-113h-643zM209 1548q0 51 96 51q98 0 98 -51t-96 -51q-98 0 -98 51zM422 1548q0 51 98 51t98 -51t-98 -51t-98 51z" />
<glyph unicode="&#xcc;" horiz-adv-x="430" d="M4 1577l2 53l365 -174l-2 -55zM104 0v1354h207v-1354h-207z" />
<glyph unicode="&#xcd;" horiz-adv-x="430" d="M76 1470l364 172l4 -51l-364 -176zM113 0v1354h204v-1354h-204z" />
<glyph unicode="&#xce;" horiz-adv-x="430" d="M-18 1495l151 107h170l152 -107h-95l-143 74l-141 -74h-94zM113 0v1354h204v-1354h-204z" />
<glyph unicode="&#xcf;" horiz-adv-x="430" d="M-2 1550q0 51 98 52q99 -1 99 -52q0 -53 -99 -53q-98 0 -98 53zM113 0v1354h206v-1354h-206zM213 1550q0 51 98 52q99 -1 99 -52q0 -53 -99 -53q-98 0 -98 53z" />
<glyph unicode="&#xd0;" horiz-adv-x="972" d="M2 643v113h432v-113h-432zM80 -2v1356h582q117 0 180 -127q49 -102 49 -232v-645q0 -129 -49 -227q-63 -125 -180 -125h-582zM285 111h266q76 0 117 86q30 69 30 153v645q0 86 -30 156q-41 88 -117 88h-266v-1128z" />
<glyph unicode="&#xd1;" horiz-adv-x="968" d="M76 0v1354h223l434 -1069v1069h160v-1354h-260l-400 950v-950h-157zM238 1511q41 86 145 86q66 0 176 -59q14 18 25 59h118q-43 -88 -149 -88q-70 0 -172 58q-16 -16 -27 -56h-116z" />
<glyph unicode="&#xd2;" horiz-adv-x="1015" d="M66 350v645q0 129 49 232q63 127 180 127h410q117 0 180 -127q51 -102 51 -232v-645q0 -129 -51 -227q-63 -125 -180 -125h-410q-117 0 -180 125q-49 98 -49 227zM258 350q0 -84 31 -153q41 -86 117 -86h190q74 0 115 86q32 69 32 153v645q0 86 -32 156q-41 88 -115 88 h-190q-76 0 -117 -88q-31 -70 -31 -156v-645zM281 1581l2 53l364 -174l-2 -55z" />
<glyph unicode="&#xd3;" horiz-adv-x="1015" d="M66 350v645q0 129 49 232q63 127 180 127h410q117 0 180 -127q51 -102 51 -232v-645q0 -129 -51 -227q-63 -125 -180 -125h-410q-117 0 -180 125q-49 98 -49 227zM258 350q0 -84 31 -153q41 -86 117 -86h190q74 0 115 86q32 69 32 153v645q0 86 -32 156q-41 88 -115 88 h-190q-76 0 -117 -88q-31 -70 -31 -156v-645zM299 1475l365 172l4 -52l-365 -176z" />
<glyph unicode="&#xd4;" horiz-adv-x="1015" d="M66 350v645q0 129 49 232q63 127 180 127h410q117 0 180 -127q51 -102 51 -232v-645q0 -129 -51 -227q-63 -125 -180 -125h-410q-117 0 -180 125q-49 98 -49 227zM258 350q0 -84 31 -153q41 -86 117 -86h190q74 0 115 86q32 69 32 153v645q0 86 -32 156q-41 88 -115 88 h-190q-76 0 -117 -88q-31 -70 -31 -156v-645zM270 1483l152 106h172l149 -106h-94l-143 73l-139 -73h-97z" />
<glyph unicode="&#xd5;" horiz-adv-x="1015" d="M66 350v645q0 129 49 232q63 127 180 127h410q117 0 180 -127q51 -102 51 -232v-645q0 -129 -51 -227q-63 -125 -180 -125h-410q-117 0 -180 125q-49 98 -49 227zM258 350q0 -84 31 -153q41 -86 117 -86h190q74 0 115 86q32 69 32 153v645q0 86 -32 156q-41 88 -115 88 h-190q-76 0 -117 -88q-31 -70 -31 -156v-645zM279 1509q39 88 145 88q66 0 176 -59q14 18 25 59h116q-43 -90 -147 -90q-70 0 -174 60q-14 -18 -25 -58h-116z" />
<glyph unicode="&#xd6;" horiz-adv-x="1015" d="M66 350v645q0 129 49 232q63 127 180 127h410q117 0 180 -127q51 -102 51 -232v-645q0 -129 -51 -227q-63 -125 -180 -125h-410q-117 0 -180 125q-49 98 -49 227zM258 350q0 -84 31 -153q41 -86 117 -86h190q74 0 115 86q32 69 32 153v645q0 86 -32 156q-41 88 -115 88 h-190q-76 0 -117 -88q-31 -70 -31 -156v-645zM301 1550q0 53 98 54q97 -1 97 -54q0 -51 -97 -51q-98 0 -98 51zM516 1550q0 53 98 54q97 -1 97 -54q0 -51 -97 -51q-98 0 -98 51z" />
<glyph unicode="&#xd8;" horiz-adv-x="1015" d="M66 350v645q0 129 49 232q63 127 180 127h410q117 0 180 -127q51 -102 51 -232v-645q0 -129 -51 -227q-63 -125 -180 -125h-410q-117 0 -180 125q-49 98 -49 227zM258 350q0 -78 25 -143l346 1026q-16 6 -33 6h-190q-76 0 -117 -88q-31 -70 -31 -156v-645zM358 119 q20 -8 48 -8h190q74 0 115 86q33 70 32 153v645q0 86 -32 156q-4 6 -6 10z" />
<glyph unicode="&#xd9;" horiz-adv-x="1097" d="M78 350v1000h192v-1000q0 -84 31 -151q41 -88 117 -88h237q76 0 117 88q31 68 31 151v1000h192v-1000q0 -129 -51 -227q-61 -125 -178 -125h-459q-117 0 -178 125q-51 98 -51 227zM328 1589l2 53l366 -174l-4 -55z" />
<glyph unicode="&#xda;" horiz-adv-x="1097" d="M78 350v1000h192v-1000q0 -84 31 -151q41 -88 117 -88h237q76 0 117 88q31 68 31 151v1000h192v-1000q0 -129 -51 -227q-61 -125 -178 -125h-459q-117 0 -178 125q-51 98 -51 227zM379 1462l366 174l3 -53l-365 -176z" />
<glyph unicode="&#xdb;" horiz-adv-x="1097" d="M78 350v1000h192v-1000q0 -84 31 -151q41 -88 117 -88h237q76 0 117 88q31 68 31 151v1000h192v-1000q0 -129 -51 -227q-61 -125 -178 -125h-459q-117 0 -178 125q-51 98 -51 227zM301 1483l152 106h172l149 -106h-94l-143 73l-140 -73h-96z" />
<glyph unicode="&#xdc;" horiz-adv-x="1097" d="M78 350v1000h192v-1000q0 -84 31 -151q41 -88 117 -88h237q76 0 117 88q31 68 31 151v1000h192v-1000q0 -129 -51 -227q-61 -125 -178 -125h-459q-117 0 -178 125q-51 98 -51 227zM344 1544q0 53 98 53q99 0 99 -53q0 -51 -99 -51q-98 0 -98 51zM559 1544q0 53 98 53 q97 0 97 -53q0 -51 -97 -51q-98 0 -98 51z" />
<glyph unicode="&#xdd;" horiz-adv-x="765" d="M-14 1354h217l172 -539l172 539h215l-291 -705v-649h-205l-2 653zM205 1470l364 175l4 -54l-364 -176z" />
<glyph unicode="&#xdf;" horiz-adv-x="868" d="M23 0v1051q0 160 40 225q51 84 201 84h316q131 0 200 -113q58 -94 58 -233q0 -98 -33 -191q-41 -121 -119 -137q74 0 119 -141q31 -102 31 -201q0 -141 -56 -233q-68 -111 -200 -111h-252v113h164q84 0 126 88q33 68 33 159q0 88 -30 164q-39 100 -113 101h-139v112h139 q61 0 90 99q20 70 20 153q0 82 -20 154q-27 104 -82 104h-158q-63 0 -98 -61q-29 -49 -29 -119v-1067h-208z" />
<glyph unicode="&#xe0;" horiz-adv-x="884" d="M43 317q0 119 47 211q57 113 166 113h274v-113h-73q-45 2 -62 2q-88 0 -119 -32q-39 -41 -38 -164q0 -70 18 -131q27 -90 78 -90h289v665q0 88 -21 127q-31 53 -110 53h-261v113h344q156 0 209 -84q41 -63 41 -229v-758h-569q-109 0 -166 111q-47 88 -47 206zM231 1262 l5 53l364 -174l-4 -56z" />
<glyph unicode="&#xe1;" horiz-adv-x="884" d="M43 317q0 119 47 211q57 113 166 113h274v-113h-73q-45 2 -62 2q-88 0 -119 -32q-39 -41 -38 -164q0 -70 18 -131q27 -90 78 -90h289v665q0 88 -21 127q-31 53 -110 53h-261v113h344q156 0 209 -84q41 -63 41 -229v-758h-569q-109 0 -166 111q-47 88 -47 206zM223 1143 l365 174l2 -53l-365 -177z" />
<glyph unicode="&#xe2;" horiz-adv-x="884" d="M43 317q0 119 47 211q57 113 166 113h274v-113h-73q-45 2 -62 2q-88 0 -119 -32q-39 -41 -38 -164q0 -70 18 -131q27 -90 78 -90h289v665q0 88 -21 127q-31 53 -110 53h-261v113h344q156 0 209 -84q41 -63 41 -229v-758h-569q-109 0 -166 111q-47 88 -47 206zM264 1159 l152 109h170l151 -109h-94l-143 76l-142 -76h-94z" />
<glyph unicode="&#xe3;" horiz-adv-x="884" d="M43 317q0 119 47 211q57 113 166 113h274v-113h-73q-45 2 -62 2q-88 0 -119 -32q-39 -41 -38 -164q0 -70 18 -131q27 -90 78 -90h289v665q0 88 -21 127q-31 53 -110 53h-261v113h344q156 0 209 -84q41 -63 41 -229v-758h-569q-109 0 -166 111q-47 88 -47 206zM242 1169 q41 88 147 88q66 0 176 -59q14 18 25 59h117q-43 -90 -148 -90q-70 0 -174 60q-14 -18 -25 -58h-118z" />
<glyph unicode="&#xe4;" horiz-adv-x="884" d="M43 317q0 119 47 211q57 113 166 113h274v-113h-73q-45 2 -62 2q-88 0 -119 -32q-39 -41 -38 -164q0 -70 18 -131q27 -90 78 -90h289v665q0 88 -21 127q-31 53 -110 53h-261v113h344q156 0 209 -84q41 -63 41 -229v-758h-569q-109 0 -166 111q-47 88 -47 206zM246 1202 q0 51 98 51t98 -51t-98 -51t-98 51zM461 1202q0 51 98 51t98 -51t-98 -51t-98 51z" />
<glyph unicode="&#xe5;" horiz-adv-x="884" d="M43 317q0 119 47 211q57 113 166 113h274v-113h-73q-45 2 -62 2q-88 0 -119 -32q-39 -41 -38 -164q0 -70 18 -131q27 -90 78 -90h289v665q0 88 -21 127q-31 53 -110 53h-261v113h344q156 0 209 -84q41 -63 41 -229v-758h-569q-109 0 -166 111q-47 88 -47 206zM287 1182 q0 53 61 84q49 25 109 24q57 0 108 -24q60 -31 60 -84t-60 -86q-49 -25 -108 -25t-109 25q-61 33 -61 86zM399 1167q0 -90 58 -90q55 0 55 94v21q0 92 -55 92q-57 0 -58 -88v-29z" />
<glyph unicode="&#xe6;" horiz-adv-x="1454" d="M74 303q0 160 45 202t205 42h338v168q0 150 -125 149h-426v113h1024q160 2 204.5 -40t44.5 -200v-305h-563v-164q0 -152 127 -151h400v-115h-1045q-168 -2 -207 70q-23 43 -22 231zM260 305q0 -51 19 -112q25 -80 63 -80h324v59q0 43 -2 130t-2 130h-320q-82 0 -82 -127z M821 547h367v123q0 195 -111 194h-129q-127 0 -127 -159v-158z" />
<glyph unicode="&#xe7;" horiz-adv-x="743" d="M25 338v397q0 166 41 238q55 98 208 98h410v-113h-324q-84 0 -112 -75q-16 -45 -17 -146v-420q0 -113 25 -151q33 -49 139 -53q55 -4 144 -2q123 2 145 2v-113h-410q-154 0 -208 98q-41 72 -41 240zM317 -291h177q63 0 63 58q0 41 -45 52t-88 21q-45 23 -45 92 q0 25 18 70h27q0 -98 55 -121q53 -10 105 -18q55 -14 55 -94q0 -45 -26.5 -77t-71.5 -32h-224v49z" />
<glyph unicode="&#xe8;" horiz-adv-x="923" d="M70 338v397q0 166 39 238q55 98 210 98h371q94 0 146 -117q36 -87 36 -198t-36 -195q-49 -113 -146 -112h-287v112h170q59 0 89 84q20 59 20 133q0 59 -14 109q-18 72 -60 71h-202q-84 0 -113 -73q-18 -45 -19 -146v-407q0 -119 23 -160q35 -59 143 -59q-43 0 359 0v-113 h-480q-156 0 -210 98q-39 72 -39 240zM260 1255l4 52l365 -172l-4 -56z" />
<glyph unicode="&#xe9;" horiz-adv-x="923" d="M70 338v397q0 166 39 238q55 98 210 98h371q94 0 146 -117q36 -87 36 -198t-36 -195q-49 -113 -146 -112h-287v112h170q59 0 89 84q20 59 20 133q0 59 -14 109q-18 72 -60 71h-202q-84 0 -113 -73q-18 -45 -19 -146v-407q0 -119 23 -160q35 -59 143 -59q-43 0 359 0v-113 h-480q-156 0 -210 98q-39 72 -39 240zM315 1135l365 174l4 -54l-365 -176z" />
<glyph unicode="&#xea;" horiz-adv-x="923" d="M70 338v397q0 166 39 238q55 98 210 98h371q94 0 146 -117q36 -87 36 -198t-36 -195q-49 -113 -146 -112h-287v112h170q59 0 89 84q20 59 20 133q0 59 -14 109q-18 72 -60 71h-202q-84 0 -113 -73q-18 -45 -19 -146v-407q0 -119 23 -160q35 -59 143 -59q-43 0 359 0v-113 h-480q-156 0 -210 98q-39 72 -39 240zM244 1153l151 109h170l152 -109h-94l-144 74l-141 -74h-94z" />
<glyph unicode="&#xeb;" horiz-adv-x="923" d="M70 338v397q0 166 39 238q55 98 210 98h371q94 0 146 -117q36 -87 36 -198t-36 -195q-49 -113 -146 -112h-287v112h170q59 0 89 84q20 59 20 133q0 59 -14 109q-18 72 -60 71h-202q-84 0 -113 -73q-18 -45 -19 -146v-407q0 -119 23 -160q35 -59 143 -59q-43 0 359 0v-113 h-480q-156 0 -210 98q-39 72 -39 240zM272 1208q0 51 99 52q98 -1 98 -52t-98 -51t-99 51zM487 1208q0 51 99 52q96 -1 96 -52t-96 -51q-98 0 -99 51z" />
<glyph unicode="&#xec;" horiz-adv-x="391" d="M2 1278l4 51l365 -172l-4 -55zM102 0v1071h207v-1071h-207z" />
<glyph unicode="&#xed;" horiz-adv-x="391" d="M59 1128l365 172l4 -51l-365 -176zM94 0v1071h207v-1071h-207z" />
<glyph unicode="&#xee;" horiz-adv-x="391" d="M-10 1159l151 107h170l152 -107h-94l-144 74l-141 -74h-94zM104 0v1071h207v-1071h-207z" />
<glyph unicode="&#xef;" horiz-adv-x="391" d="M6 1214q0 51 98 52q99 -1 99 -52t-99 -51q-98 0 -98 51zM100 0v1071h207v-1071h-207zM221 1214q0 51 98 52q97 -1 97 -52t-97 -51q-98 0 -98 51z" />
<glyph unicode="&#xf1;" horiz-adv-x="964" d="M88 0v1071h571q156 0 209 -84q41 -63 41 -229v-758h-202v721q0 111 -15 153q-27 84 -114 84h-285v-958h-205zM274 1167q41 88 146 88q66 0 176 -59q16 18 25 59h118q-43 -90 -149 -90q-70 0 -172 60q-14 -18 -27 -58h-117z" />
<glyph unicode="&#xf2;" d="M78 338v397q0 166 41 238q55 98 209 98h358q156 0 211 -98q39 -72 39 -238v-397q0 -168 -39 -240q-55 -98 -211 -98h-358q-154 0 -209 98q-41 72 -41 240zM285 354q0 -88 39 -157q45 -84 125 -84h116q109 0 144 61q23 41 22 160v403q0 102 -18 148q-29 74 -113 73h-186 q-84 0 -113 -73q-16 -45 -16 -148v-383zM348 1255l4 54l365 -174l-4 -56z" />
<glyph unicode="&#xf3;" d="M78 338v397q0 166 41 238q55 98 209 98h358q156 0 211 -98q39 -72 39 -238v-397q0 -168 -39 -240q-55 -98 -211 -98h-358q-154 0 -209 98q-41 72 -41 240zM285 354q0 -88 39 -157q45 -84 125 -84h116q109 0 144 61q23 41 22 160v403q0 102 -18 148q-29 74 -113 73h-186 q-84 0 -113 -73q-16 -45 -16 -148v-383zM319 1135l365 172l4 -52l-364 -176z" />
<glyph unicode="&#xf4;" d="M78 338v397q0 166 41 238q55 98 209 98h358q156 0 211 -98q39 -72 39 -238v-397q0 -168 -39 -240q-55 -98 -211 -98h-358q-154 0 -209 98q-41 72 -41 240zM285 354q0 -88 39 -157q45 -84 125 -84h116q109 0 144 61q23 41 22 160v403q0 102 -18 148q-29 74 -113 73h-186 q-84 0 -113 -73q-16 -45 -16 -148v-383zM285 1151l151 109h172l150 -109h-94l-144 74l-139 -74h-96z" />
<glyph unicode="&#xf5;" d="M78 338v397q0 166 41 238q55 98 209 98h358q156 0 211 -98q39 -72 39 -238v-397q0 -168 -39 -240q-55 -98 -211 -98h-358q-154 0 -209 98q-41 72 -41 240zM276 1169q41 88 148 88q66 0 176 -59q14 18 23 59h118q-43 -90 -149 -90q-68 0 -172 60q-14 -18 -27 -58h-117z M285 354q0 -88 39 -157q45 -84 125 -84h116q109 0 144 61q23 41 22 160v403q0 102 -18 148q-29 74 -113 73h-186q-84 0 -113 -73q-16 -45 -16 -148v-383z" />
<glyph unicode="&#xf6;" d="M78 338v397q0 166 41 238q55 98 209 98h358q156 0 211 -98q39 -72 39 -238v-397q0 -168 -39 -240q-55 -98 -211 -98h-358q-154 0 -209 98q-41 72 -41 240zM285 354q0 -88 39 -157q45 -84 125 -84h116q109 0 144 61q23 41 22 160v403q0 102 -18 148q-29 74 -113 73h-186 q-84 0 -113 -73q-16 -45 -16 -148v-383zM317 1208q0 51 99 52q98 -1 98 -52q0 -53 -98 -53t-99 53zM532 1208q0 51 99 52q96 -1 96 -52q0 -53 -96 -53q-98 0 -99 53z" />
<glyph unicode="&#xf8;" d="M78 338v397q0 96 13 161t44 103.5t78 55t115 16.5h358q68 0 116 -16.5t77.5 -55t43 -103.5t13.5 -161v-397q0 -98 -13.5 -163.5t-43 -103.5t-77.5 -54.5t-116 -16.5h-358q-68 0 -115 16.5t-78 55.5t-44 103.5t-13 162.5zM285 354q0 -63 18 -114l350 708q-27 10 -53 10 h-186q-72 0 -100.5 -48t-28.5 -173v-383zM365 141q35 -29 84 -28h116q47 0 79 8t51.5 31.5t27.5 66.5t8 115v403q0 82 -12 129z" />
<glyph unicode="&#xf9;" horiz-adv-x="950" d="M68 315v758h200v-719q0 -111 17 -155q27 -82 114 -82h287v956h205v-1071h-574q-156 0 -208 84q-41 66 -41 229zM293 1255l4 54l365 -174l-5 -56z" />
<glyph unicode="&#xfa;" horiz-adv-x="950" d="M68 315v758h200v-719q0 -111 17 -155q27 -82 114 -82h287v956h205v-1071h-574q-156 0 -208 84q-41 66 -41 229zM297 1141l365 174l4 -53l-365 -177z" />
<glyph unicode="&#xfb;" horiz-adv-x="950" d="M68 315v758h200v-719q0 -111 17 -155q27 -82 114 -82h287v956h205v-1071h-574q-156 0 -208 84q-41 66 -41 229zM256 1159l154 107h170l151 -107h-96l-143 74l-140 -74h-96z" />
<glyph unicode="&#xfc;" horiz-adv-x="950" d="M68 315v758h200v-719q0 -111 17 -155q27 -82 114 -82h287v956h205v-1071h-574q-156 0 -208 84q-41 66 -41 229zM283 1206q0 53 98 54q98 -1 98 -54q0 -51 -98 -51t-98 51zM498 1206q0 53 98 54q96 -1 96 -54q0 -51 -96 -51q-98 0 -98 51z" />
<glyph unicode="&#xfd;" horiz-adv-x="1026" d="M35 1073h231l297 -813l275 813h161l-540 -1542h-189l174 469zM391 1141l365 174l4 -53l-365 -177z" />
<glyph unicode="&#xff;" horiz-adv-x="1038" d="M45 1073h234l294 -813l275 813h162l-541 -1542h-186l172 469zM369 1208q0 53 98 54q98 -1 98 -54q0 -51 -98 -51t-98 51zM584 1208q0 53 98 54q98 -1 98 -54q0 -51 -98 -51t-98 51z" />
<glyph unicode="&#x152;" horiz-adv-x="1376" d="M125 313v729q0 164 43 228q51 84 207 84h899v-115h-375v-504h191v-112h-191v-510h375v-113h-899q-154 0 -209 84q-41 63 -41 229zM330 322q0 -209 129 -209h110q123 0 123 139v852q0 137 -123 137h-110q-129 0 -129 -207v-712z" />
<glyph unicode="&#x153;" horiz-adv-x="1443" d="M113 236v505q0 154 49 197q43 39 200 39h254q27 0 79.5 -7t78.5 -7q23 0 68 8t67 8h250q156 0 203 -41t47 -195v-311h-543v-153q0 -162 127 -162h379v-115h-463q-23 0 -68.5 5t-68.5 5q-27 0 -78 -6t-78 -6h-254q-158 0 -200 39q-49 43 -49 197zM317 340q0 -102 17 -150 q29 -78 112 -77h86q127 0 127 166v409q0 176 -127 176h-86q-84 0 -112 -78q-16 -45 -17 -147v-299zM866 547h346v123q0 195 -110 194h-109q-127 0 -127 -168v-149z" />
<glyph unicode="&#x178;" horiz-adv-x="882" d="M80 1354h217l172 -539l170 539h217l-291 -705v-649h-205l-2 653zM295 1526q0 51 96 51q98 0 98 -51q0 -53 -98 -53q-96 0 -96 53zM508 1526q0 51 98 51q99 0 99 -51q0 -53 -99 -53q-98 0 -98 53z" />
<glyph unicode="&#x2c6;" horiz-adv-x="524" d="M20 1145l152 106h170l152 -106h-95l-143 74l-141 -74h-95z" />
<glyph unicode="&#x2dc;" horiz-adv-x="577" d="M55 1118q39 88 146 88q66 0 176 -59q14 18 24 59h117q-43 -90 -147 -90q-70 0 -174 60q-14 -18 -25 -58h-117z" />
<glyph unicode="&#x2000;" horiz-adv-x="823" />
<glyph unicode="&#x2001;" horiz-adv-x="1647" />
<glyph unicode="&#x2002;" horiz-adv-x="823" />
<glyph unicode="&#x2003;" horiz-adv-x="1647" />
<glyph unicode="&#x2004;" horiz-adv-x="549" />
<glyph unicode="&#x2005;" horiz-adv-x="411" />
<glyph unicode="&#x2006;" horiz-adv-x="274" />
<glyph unicode="&#x2007;" horiz-adv-x="274" />
<glyph unicode="&#x2008;" horiz-adv-x="205" />
<glyph unicode="&#x2009;" horiz-adv-x="329" />
<glyph unicode="&#x200a;" horiz-adv-x="91" />
<glyph unicode="&#x2010;" horiz-adv-x="544" d="M100 567v117h389v-117h-389z" />
<glyph unicode="&#x2011;" horiz-adv-x="544" d="M100 567v117h389v-117h-389z" />
<glyph unicode="&#x2012;" horiz-adv-x="544" d="M100 567v117h389v-117h-389z" />
<glyph unicode="&#x2013;" horiz-adv-x="1179" d="M100 567v117h1024v-117h-1024z" />
<glyph unicode="&#x2014;" horiz-adv-x="2203" d="M100 567v117h2048v-117h-2048z" />
<glyph unicode="&#x2018;" horiz-adv-x="303" d="M63 1184l56 409h114v-409h-170z" />
<glyph unicode="&#x2019;" horiz-adv-x="264" d="M51 1210v410h170l-55 -410h-115z" />
<glyph unicode="&#x201a;" horiz-adv-x="264" d="M51 -74v410h170l-55 -410h-115z" />
<glyph unicode="&#x201c;" horiz-adv-x="532" d="M16 1206l54 410h116v-410h-170zM303 1206l55 410h115v-410h-170z" />
<glyph unicode="&#x201d;" horiz-adv-x="522" d="M47 1217v407h172l-55 -407h-117zM336 1217v407h170l-55 -407h-115z" />
<glyph unicode="&#x201e;" horiz-adv-x="522" d="M47 -63v407h172l-55 -407h-117zM336 -63v407h170l-55 -407h-115z" />
<glyph unicode="&#x2022;" horiz-adv-x="1056" d="M49 397v989h936v-989h-936z" />
<glyph unicode="&#x2026;" horiz-adv-x="2945" d="M568 2v150h202v-150h-202zM1397 2v150h202v-150h-202zM2227 2v150h202v-150h-202z" />
<glyph unicode="&#x202f;" horiz-adv-x="329" />
<glyph unicode="&#x2039;" horiz-adv-x="471" d="M84 555v121l319 166v-127l-208 -97l208 -98v-123z" />
<glyph unicode="&#x203a;" horiz-adv-x="471" d="M84 397v127l209 99l-209 96v123l319 -158v-121z" />
<glyph unicode="&#x205f;" horiz-adv-x="411" />
<glyph unicode="&#x20ac;" horiz-adv-x="933" d="M37 424v115h113v241h-113v117h113q0 457 231 457h491l-30 -115h-326q-125 0 -158 -133q-16 -68 -16 -209h403l-32 -117h-371v-241h303l-33 -115h-270v-74q0 -86 33 -153q41 -86 114 -86h355v-113h-463q-231 0 -231 426h-113z" />
<glyph unicode="&#x2122;" horiz-adv-x="1148" d="M88 991v111h408v-111h-142v-456h-121v456h-145zM547 537v567h137l109 -293l106 293h133v-567h-114v311l-123 -316l-136 328v-323h-112z" />
<glyph unicode="&#x25fc;" horiz-adv-x="1075" d="M0 0v1075h1075v-1075h-1075z" />
</font>
</defs>
</svg>
